<?xml version="1.0" standalone="no"?><!DOCTYPE svg PUBLIC "-//W3C//DTD SVG 1.1//EN" "http://www.w3.org/Graphics/SVG/1.1/DTD/svg11.dtd"><svg t="1752805287451" class="icon" viewBox="0 0 1024 1024" version="1.1" xmlns="http://www.w3.org/2000/svg" p-id="1328" xmlns:xlink="http://www.w3.org/1999/xlink" width="200" height="200"><path d="M742.826667 870.613333H257.066667a61.44 61.44 0 0 1-61.44-61.44V237.397333c0-33.962667 27.52-61.44 61.44-61.44H742.826667c33.92 0 61.44 27.477333 61.44 61.44v571.733334a61.44 61.44 0 0 1-61.44 61.44z" fill="#59E1F9" p-id="1329"></path><path d="M666.282667 562.304H333.610667c-29.354667 0-53.418667-23.893333-53.418667-53.12V325.461333c0-29.184 24.064-53.077333 53.418667-53.077333h332.672c29.354667 0 53.376 23.893333 53.376 53.077333v183.722667c0 29.226667-24.021333 53.12-53.376 53.12z" fill="#00B9E7" p-id="1330"></path><path d="M449.28 386.858667a45.653333 45.653333 0 0 1-45.824 45.525333 45.653333 45.653333 0 0 1-45.781333-45.525333c0-25.173333 20.48-45.525333 45.781333-45.525334a45.653333 45.653333 0 0 1 45.781333 45.525334zM376.064 562.304l112-132.821333a41.472 41.472 0 0 1 63.36 0l111.957333 132.821333H376.064z" fill="#FDDE80" p-id="1331"></path><path d="M279.552 655.616a30.72 30.72 0 0 1 30.72-30.72h378.709333a30.72 30.72 0 0 1 0 61.44H310.272a30.72 30.72 0 0 1-30.72-30.72zM279.552 763.733333a30.72 30.72 0 0 1 30.72-30.677333h378.709333a30.72 30.72 0 0 1 0 61.397333H310.272a30.72 30.72 0 0 1-30.72-30.72z" fill="#00B9E7" p-id="1332"></path></svg>